<?xml version="1.0" encoding="utf-8"?><!-- Uploaded to: SVG Repo, www.svgrepo.com, Generator: SVG Repo Mixer Tools -->
<svg width="800px" height="800px" viewBox="0 0 400 400" fill="none" xmlns="http://www.w3.org/2000/svg">
<path d="M182.817 52C175.691 73.3006 175.484 98.472 182.817 119.239" stroke="#000000" stroke-opacity="0.9" stroke-width="16" stroke-linecap="round" stroke-linejoin="round"/>
<path d="M181 142C131.132 168.497 124 264.825 124 318" stroke="#000000" stroke-opacity="0.9" stroke-width="16" stroke-linecap="round" stroke-linejoin="round"/>
<path d="M227.238 52C231.753 74.2378 232.158 95.7439 225.112 117.07" stroke="#000000" stroke-opacity="0.9" stroke-width="16" stroke-linecap="round" stroke-linejoin="round"/>
<path d="M229 142C276.504 182.522 276 262.799 276 318" stroke="#000000" stroke-opacity="0.9" stroke-width="16" stroke-linecap="round" stroke-linejoin="round"/>
<path d="M195.831 68.2395C208.075 64.2077 219.674 65.9852 225.113 72.6057" stroke="#000000" stroke-opacity="0.9" stroke-width="16" stroke-linecap="round" stroke-linejoin="round"/>
<path d="M182.816 91.2825C191.77 90.2812 197.885 92.3488 204.506 98.6338" stroke="#000000" stroke-opacity="0.9" stroke-width="16" stroke-linecap="round" stroke-linejoin="round"/>
<path d="M204.507 98.6338C210.832 90.8184 216.327 89.1498 224.028 93.1096" stroke="#000000" stroke-opacity="0.9" stroke-width="16" stroke-linecap="round" stroke-linejoin="round"/>
<path d="M180.326 302.521C180.326 315.073 183.326 347.441 177.41 347.441C176.617 348.047 175.292 348.118 171.549 348.047" stroke="#000000" stroke-opacity="0.9" stroke-width="16" stroke-linecap="round" stroke-linejoin="round"/>
<path d="M217.52 302.521C217.52 319.035 217.352 347.097 220.16 348.009C220.617 348.157 224.48 347.986 225.619 348.009" stroke="#000000" stroke-opacity="0.9" stroke-width="16" stroke-linecap="round" stroke-linejoin="round"/>
</svg>