<?xml version="1.0" encoding="iso-8859-1"?>
<!-- Uploaded to: SVG Repo, www.svgrepo.com, Generator: SVG Repo Mixer Tools -->
<!DOCTYPE svg PUBLIC "-//W3C//DTD SVG 1.1//EN" "http://www.w3.org/Graphics/SVG/1.1/DTD/svg11.dtd">
<svg fill="#000000" height="800px" width="800px" version="1.1" id="Capa_1" xmlns="http://www.w3.org/2000/svg" xmlns:xlink="http://www.w3.org/1999/xlink" 
	 viewBox="0 0 470 470" xml:space="preserve">
<g>
	<path d="M468.274,395.843L201.373,73.765c-15.61-18.84-38.584-29.646-63.03-29.646c-42.437,0-77.521,32.587-81.453,74.052H37.265
		c-4.143,0-7.5,3.358-7.5,7.5c0,4.142,3.357,7.5,7.5,7.5h8.469C16.485,165.232,0,207.247,0,251.029
		C0,347.442,78.438,425.88,174.853,425.88c45.91,0,89.284-17.659,122.131-49.723c28.247-27.575,46.04-63.173,51.175-101.754
		l108.567,131.01c2.641,3.189,7.37,3.632,10.56,0.989S470.918,399.032,468.274,395.843z M66.902,133.171h51.441
		c4.143,0,7.5-3.358,7.5-7.5c0-4.142-3.357-7.5-7.5-7.5H71.988c0.78-6.686,2.551-13.073,5.165-19.014h41.19
		c14.77,0,26.786,12.017,26.786,26.787c0,5.865-1.861,11.435-5.384,16.106c-2.246,2.979-1.961,7.155,0.668,9.802
		c23.522,23.671,36.834,54.811,37.705,88.02L47.777,347.885C27.227,320.989,15,287.413,15,251.029
		C15,206.219,33.89,163.431,66.902,133.171z M174.853,410.88c-46.377,0-88.198-19.859-117.425-51.513l133.022-110.233
		c1.72-1.425,2.715-3.542,2.715-5.775c0-36.488-13.433-70.957-37.953-97.724c3.232-6.021,4.918-12.724,4.918-19.691
		c0-23.041-18.745-41.787-41.786-41.787H86.277c12.266-15.247,31.056-25.038,52.066-25.038c19.965,0,38.729,8.826,51.48,24.216
		l144.732,174.652C330.913,343.946,261.29,410.88,174.853,410.88z"/>
	<path d="M361.073,326.344c-2.642-3.189-7.37-3.633-10.56-0.989c-3.189,2.643-3.633,7.371-0.989,10.561l57.593,69.499
		c1.482,1.79,3.622,2.714,5.778,2.714c1.686,0,3.382-0.565,4.781-1.725c3.189-2.643,3.633-7.371,0.989-10.561L361.073,326.344z"/>
</g>
</svg>